<svg width="64" height="64" viewBox="0 0 64 64" fill="none" xmlns="http://www.w3.org/2000/svg">
<path d="M42.7379 55.9872C42.592 55.9859 42.4461 55.9872 42.3002 55.9872C30.409 55.9872 18.5165 55.9834 6.62527 56C6.11839 56.0013 5.97887 55.9002 5.97887 55.369C5.99551 39.7095 5.99167 24.0499 5.99295 8.39041C5.99295 5.63841 7.62367 4.01025 10.3795 4.01025C21.1878 4.01025 31.9962 4.01025 42.8058 4.01025C43.0054 4.01025 43.2051 4.01025 43.5034 4.01025C42.4934 5.24545 41.9802 6.56769 41.9802 8.07681C41.9827 13.8035 41.9802 19.5302 41.9827 25.257C41.9827 26.0442 42.3578 26.4998 42.9837 26.4973C43.6083 26.4947 43.9782 26.039 43.9795 25.2506C43.9834 23.689 44.0013 22.1261 43.968 20.5658C43.9578 20.0934 44.0832 19.9885 44.5453 19.9923C47.273 20.0166 50.0019 20.0064 52.7296 20.0026C53.6192 20.0013 53.975 19.6454 53.975 18.7533C53.9776 15.1923 53.9917 11.6314 53.9712 8.07041C53.952 4.64001 51.3434 2.01985 47.9142 2.01601C35.2934 2.00321 22.6739 2.00321 10.0531 2.01601C6.62655 2.01985 4.00127 4.64513 3.99871 8.07169C3.98719 24.2931 3.99359 40.5159 3.99487 56.7373C3.99487 57.6307 4.34815 57.9853 5.24031 57.9853C17.7357 57.9866 30.231 57.9866 42.7264 57.9853C43.5162 57.9853 43.9718 57.6167 43.9757 56.992C43.9808 56.3648 43.5264 55.9949 42.7379 55.9872ZM43.9846 8.07041C43.9936 5.77153 45.7523 4.00513 47.9923 4.01025C50.2285 4.01537 51.959 5.78433 51.9757 8.09601C51.9859 9.61409 51.9782 11.1334 51.9782 12.6515C51.9782 14.2528 51.9642 15.8554 51.9885 17.4566C51.9949 17.8714 51.9219 18.0198 51.4611 18.0147C49.1315 17.9878 46.8006 17.9904 44.471 18.0134C44.0448 18.0173 43.9706 17.8816 43.9718 17.4925C43.9872 14.3526 43.9706 11.2115 43.9846 8.07041Z" fill="#979797"/>
<path d="M59.6698 56.9396C57.4707 54.7213 55.2614 52.5133 53.0419 50.3156C52.5568 49.8356 52.0601 49.8612 51.5571 50.3424C51.2589 50.6279 50.9952 50.9504 50.6547 51.3242C50.1529 50.793 49.7433 50.2848 49.2582 49.8663C48.8601 49.522 48.9344 49.3197 49.2198 48.9357C52.2457 44.8576 52.896 40.4096 50.8429 35.7645C48.7705 31.0772 45.0201 28.4365 39.9104 28.041C31.5763 27.3946 24.8883 34.7111 26.1312 42.9632C27.5635 52.4775 38.6189 57.1495 46.4934 51.57C47.4675 50.8788 47.4688 50.8788 48.2969 51.7095C48.5901 52.0039 49.0688 52.2791 49.1161 52.6119C49.1712 52.9984 48.6131 53.2365 48.3366 53.554C47.8797 54.0775 47.8413 54.56 48.3213 55.0426C50.5062 57.2455 52.7014 59.4394 54.903 61.6256C55.3894 62.1082 55.9078 62.1184 56.3917 61.6487C57.4963 60.5735 58.5843 59.4829 59.6621 58.3808C60.1165 57.9111 60.1267 57.4004 59.6698 56.9396ZM38.9593 51.9885C32.8998 51.9796 27.9795 47.0388 27.9872 40.9703C27.9949 34.9108 32.9357 29.9904 39.0042 29.9981C45.0649 30.0058 49.9853 34.9453 49.9776 41.0138C49.9699 47.072 45.024 51.9975 38.9593 51.9885ZM57.271 57.9687C56.7961 58.4026 56.3469 58.866 55.9027 59.3319C55.7209 59.5226 55.6045 59.5431 55.4061 59.3434C53.8265 57.7498 52.2355 56.1664 50.6483 54.5818C50.5113 54.4461 50.3757 54.336 50.5907 54.1325C51.1168 53.6308 51.6237 53.1085 52.1395 52.5965C52.1933 52.5428 52.2598 52.5018 52.3366 52.4429C52.448 52.5466 52.5402 52.6272 52.6259 52.7143C54.1696 54.2567 55.7056 55.8042 57.2595 57.3364C57.5027 57.577 57.5424 57.7216 57.271 57.9687Z" fill="#979797"/>
<path d="M37.8035 8.01023C36.5965 8.00255 35.3907 8.00383 34.1837 8.01023C33.3415 8.01535 32.9856 8.37887 32.9843 9.23903C32.9818 14.4179 32.9818 19.5981 32.9843 24.777C32.9843 25.632 33.344 25.9942 34.1914 25.9994C35.3357 26.0058 36.48 26.0019 37.6243 26.0006C38.6714 25.9994 38.9811 25.6832 38.9811 24.6131C38.9824 22.0749 38.9811 19.5379 38.9811 16.9997C38.9811 14.4 38.985 11.799 38.9786 9.19935C38.9786 8.38527 38.6099 8.01535 37.8035 8.01023ZM36.4211 24.0141C34.985 23.9846 34.9837 24.0077 34.9837 22.5638C34.9837 20.7104 34.9837 18.8582 34.9837 17.0048C34.9837 14.839 34.9952 12.6746 34.9735 10.5088C34.9696 10.103 35.0733 9.99295 35.4829 9.99551C36.9831 10.0045 36.9831 9.98783 36.9831 11.5059C36.9831 15.4829 36.9741 19.4598 36.9946 23.4355C36.9971 23.9014 36.8909 24.023 36.4211 24.0141Z" fill="#979797"/>
<path d="M21.6934 25.9994C22.6572 25.9968 22.9862 25.6602 22.9875 24.6746C22.99 22.4487 22.9875 20.224 22.9875 17.9981C22.9875 15.7312 22.9913 13.4643 22.9849 11.1975C22.9824 10.3834 22.615 10.0147 21.8086 10.0096C20.6028 10.0019 19.3958 10.0032 18.1888 10.0096C17.3478 10.0147 16.9907 10.3783 16.9907 11.2384C16.9881 15.7517 16.9881 20.265 16.9907 24.7783C16.9907 25.6333 17.3504 25.9943 18.1977 25.9994C19.3638 26.0045 20.5286 26.0032 21.6934 25.9994ZM19.5148 11.9936C20.9881 12.0154 20.9881 11.9949 20.9881 13.4695C20.9881 14.9888 20.9881 16.5095 20.9881 18.0288C20.9881 19.8605 20.9766 21.6935 20.9971 23.5251C21.0009 23.8989 20.9228 24.0128 20.5248 24.0128C18.9888 24.0115 18.9888 24.0282 18.9888 22.4755C18.9888 19.1655 18.9977 15.8554 18.9785 12.544C18.976 12.1165 19.0668 11.9872 19.5148 11.9936Z" fill="#979797"/>
<path d="M8.99456 24.823C8.9984 25.6064 9.3632 25.9904 10.1222 25.9968C11.3702 26.0083 12.6182 26.0083 13.865 25.9968C14.5971 25.9904 14.985 25.609 14.9875 24.8806C14.9952 21.6371 14.9952 18.3936 14.9875 15.1501C14.9862 14.3846 14.6035 14.0134 13.8291 14.0083C12.6234 13.9994 11.4176 14.0019 10.2106 14.007C9.3568 14.0109 8.99712 14.368 8.99456 15.2179C8.98944 16.8192 8.99328 18.4205 8.99328 20.0205C8.992 21.6218 8.98816 23.2218 8.99456 24.823ZM11.4918 15.9936C12.992 16.0026 12.992 15.9859 12.992 17.504C12.992 18.3373 12.992 19.1693 12.992 20.0026C12.992 21.1891 12.9792 22.3757 12.9997 23.5622C13.0061 23.9142 12.9075 24.0064 12.5542 24.0115C10.9914 24.0294 10.9914 24.0422 10.9914 22.5024C10.9914 20.5043 11.0029 18.505 10.9811 16.5069C10.9773 16.0998 11.0822 15.991 11.4918 15.9936Z" fill="#979797"/>
<path d="M30.9837 24.7744C30.9875 21.5936 30.9875 18.4115 30.9837 15.2307C30.9824 14.3744 30.624 14.0121 29.7792 14.007C28.5939 14.0006 27.4086 14.0019 26.2233 14.007C25.3363 14.0109 24.9907 14.3616 24.9881 15.2627C24.9843 16.8217 24.9869 18.3821 24.9869 19.9411C24.9869 21.5629 24.983 23.1846 24.9881 24.8064C24.992 25.6217 25.3555 25.9929 26.1606 25.9993C27.3664 26.007 28.5734 26.0057 29.7792 25.9993C30.6214 25.9942 30.9824 25.6294 30.9837 24.7744ZM28.5478 24.0102C26.9862 24.0281 26.9862 24.0409 26.9862 22.5011C26.9862 20.503 26.9977 18.5037 26.976 16.5056C26.9721 16.0985 27.0771 15.991 27.4854 15.9936C28.9843 16.0025 28.9843 15.9872 28.9843 17.504C28.9843 18.3373 28.9843 19.1693 28.9843 20.0025C28.9843 21.1891 28.9702 22.3757 28.992 23.5622C29.0009 23.9142 28.9011 24.0064 28.5478 24.0102Z" fill="#979797"/>
<path d="M14.9862 39.0925C14.9786 38.3731 14.5869 38.0083 13.8458 37.9968C13.2224 37.9878 12.599 37.9942 11.9757 37.9942C11.3523 37.9942 10.729 37.9853 10.1056 37.9968C9.40032 38.0096 9.00608 38.3757 8.99712 39.0605C8.98176 40.3481 8.98176 41.6371 8.99712 42.9248C9.0048 43.5865 9.38752 43.9782 10.0416 43.9859C11.3293 44.0025 12.6182 44.0013 13.9059 43.9872C14.5946 43.9795 14.9773 43.5891 14.985 42.8941C14.999 41.6269 15.0003 40.3597 14.9862 39.0925ZM11.9168 41.9929C10.9926 41.9929 10.9926 41.9929 10.9926 41.0432C10.9926 39.9936 10.9926 39.9936 12.0678 39.9936C12.992 39.9936 12.992 39.9936 12.992 40.9433C12.9907 41.9929 12.9907 41.9929 11.9168 41.9929Z" fill="#979797"/>
<path d="M13.9098 46.9965C12.6426 46.9824 11.3754 46.9837 10.1082 46.9952C9.37984 47.0016 9.00224 47.3843 8.99584 48.1178C8.9856 49.3645 8.9856 50.6112 8.99584 51.8579C9.00224 52.5939 9.37856 52.9715 10.1043 52.9869C10.7277 52.9997 11.351 52.9895 11.9744 52.9895C12.6182 52.9895 13.2634 53.001 13.9072 52.9856C14.5958 52.969 14.9811 52.5875 14.9875 51.8925C15.0003 50.6253 15.0003 49.3581 14.9875 48.0909C14.9798 47.3933 14.5971 47.0042 13.9098 46.9965ZM12.0243 50.9901C10.9926 50.9901 10.9926 50.9901 10.9926 49.961C10.9926 48.992 10.9926 48.992 11.9603 48.992C12.992 48.992 12.992 48.992 12.992 50.0211C12.9907 50.9901 12.9907 50.9901 12.0243 50.9901Z" fill="#979797"/>
<path d="M28.3596 29.984C28.3507 29.376 27.9104 29.0035 27.1705 29.001C25.8611 28.9946 24.5516 28.9997 23.2422 28.9997C21.8905 28.9997 20.5401 28.9958 19.1884 29.001C18.4499 29.0035 18.0044 29.3773 17.9942 29.9814C17.984 30.5907 18.4307 30.9952 19.1539 30.9965C21.8355 31.0016 24.5171 31.0016 27.1987 30.9965C27.9232 30.9939 28.3686 30.5946 28.3596 29.984Z" fill="#979797"/>
<path d="M15.9372 29.7229C15.8182 29.3607 15.5763 29.1111 15.2051 29.0253C14.775 28.9255 14.4345 29.1008 14.1619 29.4298C13.3388 30.4167 12.5145 31.4036 11.6531 32.4352C11.3484 32.0717 11.0809 31.73 10.7904 31.41C10.359 30.9325 9.79579 30.8698 9.35035 31.2308C8.91131 31.5879 8.85371 32.1754 9.24923 32.6733C9.76635 33.3236 10.3001 33.9623 10.8505 34.5856C11.3497 35.1514 11.9641 35.1604 12.4556 34.5844C13.5628 33.2877 14.6444 31.9706 15.7299 30.656C15.9526 30.3872 16.0524 30.0736 15.9372 29.7229Z" fill="#979797"/>
<path d="M25.5975 47.968C25.5834 47.392 25.1354 47.0003 24.4532 46.9939C23.5789 46.985 22.706 46.9913 21.8317 46.9913C20.937 46.9913 20.0423 46.985 19.1476 46.9939C18.4244 47.0003 17.9764 47.4035 17.9917 48.0128C18.0058 48.5978 18.441 48.9843 19.1296 48.9881C20.8973 48.9958 22.6663 48.9958 24.434 48.9881C25.1508 48.9856 25.6128 48.567 25.5975 47.968Z" fill="#979797"/>
<path d="M24.983 33.9815C24.974 33.3978 24.5388 33.0087 23.8553 32.9997C23.0873 32.9895 22.3193 32.9972 21.5513 32.9972C20.7411 32.9972 19.9321 32.9895 19.1232 32.9997C18.4371 33.0087 18.0044 33.3939 17.9942 33.9802C17.984 34.5677 18.4192 34.9888 19.0899 34.9927C20.6886 35.0042 22.2873 35.0042 23.8848 34.9927C24.5568 34.9876 24.992 34.569 24.983 33.9815Z" fill="#979797"/>
<path d="M19.1065 50.9927C18.4268 50.9965 17.9929 51.401 17.9929 51.9872C17.9929 52.5748 18.4256 52.9754 19.104 52.9856C19.8924 52.9972 20.6822 52.9882 21.4707 52.9882C22.2809 52.9882 23.0899 52.9984 23.8988 52.9844C24.5644 52.9728 25.0009 52.544 24.9817 51.9578C24.9638 51.3959 24.5414 50.9978 23.9014 50.9927C22.304 50.9824 20.7052 50.9837 19.1065 50.9927Z" fill="#979797"/>
<path d="M23.0067 37.9981C21.6985 37.9866 20.3904 37.9866 19.0822 37.9981C18.4128 38.0045 17.9776 38.4294 17.9929 39.017C18.007 39.5802 18.4281 39.9757 19.0669 39.9898C19.7312 40.0051 20.3955 39.9936 21.0598 39.9936C21.7037 39.9936 22.3475 40.0026 22.9913 39.991C23.6749 39.9795 24.1062 39.5891 24.1113 39.0016C24.1165 38.4141 23.6838 38.0045 23.0067 37.9981Z" fill="#979797"/>
<path d="M19.1231 43.991C19.7465 44.0013 20.3686 43.9936 20.9919 43.9936C21.6563 43.9936 22.3206 44.0013 22.9849 43.991C23.671 43.9808 24.1023 43.5955 24.11 43.0067C24.119 42.4179 23.6863 42.0032 23.0131 41.9968C21.7049 41.9853 20.3967 41.9853 19.0886 41.9968C18.4166 42.0032 17.9814 42.4218 17.9929 43.0093C18.0044 43.5942 18.4383 43.9795 19.1231 43.991Z" fill="#979797"/>
<path d="M44.2188 42.4845C42.9644 41.5872 41.5347 41.175 40.0243 41.047C37.7715 40.855 35.6121 41.1686 33.7203 42.5113C31.3958 44.16 31.4048 46.8083 33.7228 48.4761C35.287 49.6013 37.0854 49.9507 38.967 49.9981C40.8512 49.9533 42.6508 49.6128 44.2214 48.4941C46.5638 46.8262 46.5561 44.1561 44.2188 42.4845ZM42.7584 47.0617C40.2777 48.3763 37.7049 48.3712 35.223 47.072C33.5385 46.1901 33.5961 44.8409 35.2512 43.8745C36.2137 43.3126 37.559 42.9939 39.3126 42.9926C40.2982 43.008 41.5859 43.2128 42.7481 43.895C44.366 44.8435 44.407 46.1875 42.7584 47.0617Z" fill="#979797"/>
<path d="M38.9236 39.9923C41.1418 40.0166 42.9619 38.2425 42.9786 36.0384C42.9965 33.8214 41.2173 32.0102 39.0093 31.9987C36.7936 31.9872 34.9901 33.7728 34.985 35.9834C34.9812 38.1696 36.7476 39.968 38.9236 39.9923ZM39.0196 33.9981C40.0999 34.0173 40.9908 34.935 40.9805 36.0166C40.969 37.0982 40.0589 37.9955 38.9773 37.993C37.8701 37.9904 36.9588 37.0522 36.9856 35.9424C37.01 34.8646 37.9367 33.9801 39.0196 33.9981Z" fill="#979797"/>
</svg>
